<svg xmlns="http://www.w3.org/2000/svg" viewBox="0 0 100 100" width="100px" height="100px"><path fill="#9d9fce" d="M13 27A2 2 0 1 0 13 31A2 2 0 1 0 13 27Z"/><path fill="#f1bc19" d="M77 12A1 1 0 1 0 77 14A1 1 0 1 0 77 12Z"/><path fill="#e4e4f9" d="M50 13A37 37 0 1 0 50 87A37 37 0 1 0 50 13Z"/><path fill="#f1bc19" d="M83 11A4 4 0 1 0 83 19A4 4 0 1 0 83 11Z"/><path fill="#9d9fce" d="M87 22A2 2 0 1 0 87 26A2 2 0 1 0 87 22Z"/><path fill="#fbcd59" d="M81 74A2 2 0 1 0 81 78 2 2 0 1 0 81 74zM15 59A4 4 0 1 0 15 67 4 4 0 1 0 15 59z"/><path fill="#9d9fce" d="M25 85A2 2 0 1 0 25 89A2 2 0 1 0 25 85Z"/><path fill="#fff" d="M18.5 51A2.5 2.5 0 1 0 18.5 56A2.5 2.5 0 1 0 18.5 51Z"/><path fill="#f1bc19" d="M21 66A1 1 0 1 0 21 68A1 1 0 1 0 21 66Z"/><path fill="#fff" d="M80 33A1 1 0 1 0 80 35A1 1 0 1 0 80 33Z"/><g><path fill="#c0d078" d="M65,28c3.86,0,7,3.14,7,7v30c0,3.86-3.14,7-7,7H35c-3.86,0-7-3.14-7-7V35c0-3.86,3.14-7,7-7H65"/><path fill="#472b29" d="M65,28.4c3.639,0,6.6,2.961,6.6,6.6v30c0,3.639-2.961,6.6-6.6,6.6H35c-3.639,0-6.6-2.961-6.6-6.6V35 c0-3.639,2.961-6.6,6.6-6.6H65 M65,27H35c-4.418,0-8,3.582-8,8v30c0,4.418,3.582,8,8,8h30c4.418,0,8-3.582,8-8V35 C73,30.582,69.418,27,65,27L65,27z"/><path fill="#fdfcee" d="M63,69H37c-3.309,0-6-2.691-6-6V37c0-3.309,2.691-6,6-6h26c3.309,0,6,2.691,6,6v26 C69,66.309,66.309,69,63,69z"/><path fill="#472b29" d="M63 69H37c-3.309 0-6-2.691-6-6V37c0-3.309 2.691-6 6-6h24.625C61.832 31 62 31.168 62 31.375s-.168.375-.375.375H37c-2.895 0-5.25 2.355-5.25 5.25v26c0 2.895 2.355 5.25 5.25 5.25h26c2.895 0 5.25-2.355 5.25-5.25V48.375c0-.207.168-.375.375-.375S69 48.168 69 48.375V63C69 66.309 66.309 69 63 69zM68.625 42c-.207 0-.375-.168-.375-.375v-1.278c0-.207.168-.375.375-.375S69 40.14 69 40.347v1.278C69 41.832 68.832 42 68.625 42z"/><path fill="#472b29" d="M68.625,47c-0.207,0-0.375-0.168-0.375-0.375v-3.25c0-0.207,0.168-0.375,0.375-0.375 S69,43.168,69,43.375v3.25C69,46.832,68.832,47,68.625,47z"/></g><g><path fill="#e1e0d8" d="M54 37.375A8.625 8.625 0 1 0 54 54.625A8.625 8.625 0 1 0 54 37.375Z"/><path fill="#a8dbdb" d="M54 39.25A6.75 6.75 0 1 0 54 52.75A6.75 6.75 0 1 0 54 39.25Z"/><path fill="#88ae45" d="M46.039,53.961c-0.781-0.781-2.047-0.781-2.828,0c-0.563,0.563-4.686,4.686-5.25,5.25 c-0.781,0.781-0.781,2.047,0,2.828c0.781,0.781,2.047,0.781,2.828,0c0.564-0.564,4.687-4.687,5.25-5.25 C46.82,56.008,46.82,54.742,46.039,53.961z"/><path fill="#d1dc82" d="M46.039,56.789c0.781-0.781,0.781-2.047,0-2.828c-0.781-0.781-2.047-0.781-2.828,0l0,0 L46.039,56.789z"/><g><path fill="#472b29" d="M54,55c-4.962,0-9-4.038-9-9s4.038-9,9-9s9,4.038,9,9S58.962,55,54,55z M54,37.75 c-4.549,0-8.25,3.701-8.25,8.25s3.701,8.25,8.25,8.25s8.25-3.701,8.25-8.25S58.549,37.75,54,37.75z"/><path fill="#472b29" d="M54,53c-3.86,0-7-3.14-7-7s3.14-7,7-7s7,3.14,7,7S57.86,53,54,53z M54,39.5 c-3.584,0-6.5,2.916-6.5,6.5s2.916,6.5,6.5,6.5s6.5-2.916,6.5-6.5S57.584,39.5,54,39.5z"/><path fill="#472b29" d="M45.801 52.484H48.231V53.484H45.801z" transform="rotate(-45.001 47.015 52.985)"/><path fill="#472b29" d="M39.375,63c-0.634,0-1.231-0.247-1.679-0.696C37.247,61.856,37,61.259,37,60.625 s0.247-1.231,0.696-1.679l5.25-5.25c0.896-0.897,2.461-0.897,3.358,0l0,0l0,0l0,0C46.753,54.145,47,54.741,47,55.375 s-0.247,1.231-0.696,1.679l-5.25,5.25C40.606,62.753,40.009,63,39.375,63z M44.625,53.75c-0.434,0-0.842,0.169-1.149,0.476 l-5.25,5.25c-0.307,0.307-0.476,0.715-0.476,1.149s0.169,0.842,0.476,1.149c0.614,0.614,1.684,0.614,2.298,0l5.25-5.25 c0.307-0.307,0.476-0.715,0.476-1.149s-0.169-0.842-0.476-1.149l0,0C45.467,53.919,45.059,53.75,44.625,53.75z"/><path fill="#472b29" d="M44.301 53.498H45.051V57.354H44.301z" transform="rotate(-45.001 44.675 55.427)"/><path fill="#472b29" d="M40.5 60c-.053 0-.103-.034-.119-.087l-.75-2.375c-.021-.066.016-.136.082-.157.068-.019.136.016.157.082l.75 2.375c.021.066-.016.136-.082.157C40.525 59.998 40.512 60 40.5 60zM40 61c-.053 0-.103-.034-.119-.087l-.943-2.986c-.021-.066.016-.136.082-.157.068-.02.137.016.157.082l.943 2.986c.021.066-.016.136-.082.157C40.025 60.998 40.012 61 40 61zM39.696 62.622c-.053 0-.103-.034-.119-.087l-1.258-3.985c-.021-.066.016-.136.082-.157.069-.021.136.017.157.082l1.258 3.985c.021.066-.016.136-.082.157C39.721 62.62 39.708 62.622 39.696 62.622zM38.921 62.75c-.053 0-.103-.034-.119-.087l-1.115-3.531c-.021-.066.016-.136.082-.157.07-.019.137.017.157.082l1.115 3.531c.021.066-.016.136-.082.157C38.946 62.748 38.933 62.75 38.921 62.75z"/></g></g></svg>